<svg width="315" height="190" viewBox="0 0 315 190" fill="none" xmlns="http://www.w3.org/2000/svg" role="img" aria-labelledby="top-langs-title top-langs-desc">
  <title id="top-langs-title">Most Used Languages</title>
  <desc id="top-langs-desc">Auto-generated language usage summary for ThalesMMS.</desc>
  <style>
    .title { font: 600 18px 'Segoe UI', Ubuntu, Sans-Serif; fill: #70a5fd; }
    .lang { font: 400 11px 'Segoe UI', Ubuntu, Sans-Serif; fill: #38bdae; }
  </style>
  <rect x="0.5" y="0.5" width="314" height="189" rx="4.5" fill="#1a1b27" stroke="#30363d" />
  <text x="24" y="32" class="title">Most Used Languages</text>
  <g transform="translate(25 42)">
    <rect x="0" y="0" width="265" height="8" fill="#30363d" rx="4" />
    <g clip-path="url(#bar-mask)">
      <rect x="0.00" y="0" width="78.01" height="8" fill="#3572A5" /><rect x="78.01" y="0" width="75.94" height="8" fill="#F05138" /><rect x="153.95" y="0" width="47.68" height="8" fill="#dea584" /><rect x="201.63" y="0" width="39.01" height="8" fill="#00B4AB" /><rect x="240.64" y="0" width="6.87" height="8" fill="#f34b7d" /><rect x="247.51" y="0" width="5.76" height="8" fill="#89e051" /><rect x="253.27" y="0" width="3.97" height="8" fill="#b07219" /><rect x="257.25" y="0" width="3.41" height="8" fill="#178600" /><rect x="260.66" y="0" width="2.56" height="8" fill="#3178c6" /><rect x="263.22" y="0" width="1.78" height="8" fill="#8f14e9" />
    </g>
  </g>
  <defs>
    <clipPath id="bar-mask">
      <rect x="25" y="42" width="265" height="8" rx="4" />
    </clipPath>
  </defs>
  <g transform="translate(25 58)">
    <g transform="translate(0 0)">
      
      <g transform="translate(0 0)">
        <circle cx="5" cy="6" r="5" fill="#3572A5" />
        <text x="15" y="10" class="lang">Python 29.44%</text>
      </g>
    
      <g transform="translate(0 24)">
        <circle cx="5" cy="6" r="5" fill="#F05138" />
        <text x="15" y="10" class="lang">Swift 28.66%</text>
      </g>
    
      <g transform="translate(0 48)">
        <circle cx="5" cy="6" r="5" fill="#dea584" />
        <text x="15" y="10" class="lang">Rust 17.99%</text>
      </g>
    
      <g transform="translate(0 72)">
        <circle cx="5" cy="6" r="5" fill="#00B4AB" />
        <text x="15" y="10" class="lang">Dart 14.72%</text>
      </g>
    
      <g transform="translate(0 96)">
        <circle cx="5" cy="6" r="5" fill="#f34b7d" />
        <text x="15" y="10" class="lang">C++ 2.59%</text>
      </g>
    
    </g>
    <g transform="translate(150 0)">
      
      <g transform="translate(0 0)">
        <circle cx="5" cy="6" r="5" fill="#89e051" />
        <text x="15" y="10" class="lang">Shell 2.17%</text>
      </g>
    
      <g transform="translate(0 24)">
        <circle cx="5" cy="6" r="5" fill="#b07219" />
        <text x="15" y="10" class="lang">Java 1.50%</text>
      </g>
    
      <g transform="translate(0 48)">
        <circle cx="5" cy="6" r="5" fill="#178600" />
        <text x="15" y="10" class="lang">C# 1.29%</text>
      </g>
    
      <g transform="translate(0 72)">
        <circle cx="5" cy="6" r="5" fill="#3178c6" />
        <text x="15" y="10" class="lang">TypeScript 0.97%</text>
      </g>
    
      <g transform="translate(0 96)">
        <circle cx="5" cy="6" r="5" fill="#8f14e9" />
        <text x="15" y="10" class="lang">Metal 0.67%</text>
      </g>
    
    </g>
  </g>
</svg>
