<svg width="315" height="190" viewBox="0 0 315 190" fill="none" xmlns="http://www.w3.org/2000/svg" role="img" aria-labelledby="top-langs-title top-langs-desc">
  <title id="top-langs-title">Most Used Languages</title>
  <desc id="top-langs-desc">Auto-generated language usage summary for ThalesMMS.</desc>
  <style>
    .title { font: 600 18px 'Segoe UI', Ubuntu, Sans-Serif; fill: #70a5fd; }
    .lang { font: 400 11px 'Segoe UI', Ubuntu, Sans-Serif; fill: #38bdae; }
  </style>
  <rect x="0.5" y="0.5" width="314" height="189" rx="4.5" fill="#1a1b27" stroke="#30363d" />
  <text x="24" y="32" class="title">Most Used Languages</text>
  <g transform="translate(25 42)">
    <rect x="0" y="0" width="265" height="8" fill="#30363d" rx="4" />
    <g clip-path="url(#bar-mask)">
      <rect x="0.00" y="0" width="82.11" height="8" fill="#F05138" /><rect x="82.11" y="0" width="68.00" height="8" fill="#3572A5" /><rect x="150.10" y="0" width="36.65" height="8" fill="#f34b7d" /><rect x="186.75" y="0" width="28.67" height="8" fill="#00B4AB" /><rect x="215.42" y="0" width="22.27" height="8" fill="#dea584" /><rect x="237.69" y="0" width="9.58" height="8" fill="#438eff" /><rect x="247.26" y="0" width="5.42" height="8" fill="#b07219" /><rect x="252.68" y="0" width="5.05" height="8" fill="#89e051" /><rect x="257.73" y="0" width="4.10" height="8" fill="#555555" /><rect x="261.83" y="0" width="3.17" height="8" fill="#3178c6" />
    </g>
  </g>
  <defs>
    <clipPath id="bar-mask">
      <rect x="25" y="42" width="265" height="8" rx="4" />
    </clipPath>
  </defs>
  <g transform="translate(25 58)">
    <g transform="translate(0 0)">
      
      <g transform="translate(0 0)">
        <circle cx="5" cy="6" r="5" fill="#F05138" />
        <text x="15" y="10" class="lang">Swift 30.98%</text>
      </g>
    
      <g transform="translate(0 24)">
        <circle cx="5" cy="6" r="5" fill="#3572A5" />
        <text x="15" y="10" class="lang">Python 25.66%</text>
      </g>
    
      <g transform="translate(0 48)">
        <circle cx="5" cy="6" r="5" fill="#f34b7d" />
        <text x="15" y="10" class="lang">C++ 13.83%</text>
      </g>
    
      <g transform="translate(0 72)">
        <circle cx="5" cy="6" r="5" fill="#00B4AB" />
        <text x="15" y="10" class="lang">Dart 10.82%</text>
      </g>
    
      <g transform="translate(0 96)">
        <circle cx="5" cy="6" r="5" fill="#dea584" />
        <text x="15" y="10" class="lang">Rust 8.40%</text>
      </g>
    
    </g>
    <g transform="translate(150 0)">
      
      <g transform="translate(0 0)">
        <circle cx="5" cy="6" r="5" fill="#438eff" />
        <text x="15" y="10" class="lang">Objective-C 3.61%</text>
      </g>
    
      <g transform="translate(0 24)">
        <circle cx="5" cy="6" r="5" fill="#b07219" />
        <text x="15" y="10" class="lang">Java 2.04%</text>
      </g>
    
      <g transform="translate(0 48)">
        <circle cx="5" cy="6" r="5" fill="#89e051" />
        <text x="15" y="10" class="lang">Shell 1.91%</text>
      </g>
    
      <g transform="translate(0 72)">
        <circle cx="5" cy="6" r="5" fill="#555555" />
        <text x="15" y="10" class="lang">C 1.55%</text>
      </g>
    
      <g transform="translate(0 96)">
        <circle cx="5" cy="6" r="5" fill="#3178c6" />
        <text x="15" y="10" class="lang">TypeScript 1.20%</text>
      </g>
    
    </g>
  </g>
</svg>
